<?xml version="1.0" encoding="UTF-8" standalone="no"?>
<svg
   width="252"
   height="158"
   viewBox="0 0 252 158"
   fill="none"
   version="1.1"
   id="svg5"
   sodipodi:docname="Volara_Logo-white_with_bcg.svg"
   inkscape:version="1.4.2 (f4327f4, 2025-05-13)"
   xmlns:inkscape="http://www.inkscape.org/namespaces/inkscape"
   xmlns:sodipodi="http://sodipodi.sourceforge.net/DTD/sodipodi-0.dtd"
   xmlns="http://www.w3.org/2000/svg"
   xmlns:svg="http://www.w3.org/2000/svg">
  <defs
     id="defs5" />
  <sodipodi:namedview
     id="namedview5"
     pagecolor="#ffffff"
     bordercolor="#000000"
     borderopacity="0.25"
     inkscape:showpageshadow="2"
     inkscape:pageopacity="0.0"
     inkscape:pagecheckerboard="0"
     inkscape:deskcolor="#d1d1d1"
     inkscape:zoom="3.71"
     inkscape:cx="126.01078"
     inkscape:cy="79.110512"
     inkscape:window-width="1920"
     inkscape:window-height="991"
     inkscape:window-x="-9"
     inkscape:window-y="1341"
     inkscape:window-maximized="1"
     inkscape:current-layer="layer1" />
  <g
     inkscape:groupmode="layer"
     id="layer1"
     inkscape:label="Layer 1"
     style="fill:#000000">
    <rect
       style="fill:#182f47;fill-opacity:1;stroke-width:1.04573"
       id="rect5"
       width="252"
       height="158"
       x="0"
       y="0" />
  </g>
  <path
     d="m 19.7953,56.0357 c -4.0927,-2.3462 -7.1335,-5.9016 -7.6045,-8.8908 l -0.1615,-1.024 h 22.035 c 17.2531,0 22.1007,0.0862 22.3396,0.3975 0.1675,0.2188 0.712,1.3741 1.2097,2.5676 2.7443,6.5821 8.2074,11.8957 16.4297,15.9801 l 3.0303,1.5051 0.0916,11.3503 c -0.3081,0 -0.7157,0.0898 -0.8165,0.1909 -0.1008,0.1008 0.8165,-3.701 0.8165,-6.0037 0,-2.4909 -0.125,5.8128 -0.3081,5.8128 -0.1695,0 -0.8494,0.2789 -1.5106,0.6201 -1.9716,1.0167 -6.5255,2.1898 -9.3608,2.4111 -6.7281,0.5254 -13.326,-2.889 -15.0754,-7.8013 l -0.623,-1.749 -3.0178,-0.2433 c -8.1649,-0.6576 -14.5542,-3.8523 -16.6763,-8.3384 -0.4458,-0.9426 -0.8109,-1.9201 -0.8109,-2.1723 0,-0.4392 -0.8408,-0.8831 -2.544,-1.3433 -1.8575,-0.5021 -5.1018,-1.9271 -7.443,-3.2694 z"
     fill="#0d8d9e"
     id="path1"
     style="display:inline" />
  <path
     d="m 207.099,146.293 c 1.994,0 2.357,-0.082 2.357,-0.533 0,-0.294 0.656,0.815 1.458,2.464 0.803,1.649 1.578,3.141 1.723,3.316 0.175,0.21 -1.615,0.286 -5.296,0.224 -3.059,-0.051 -5.515,-0.195 -5.46,-0.318 0.056,-0.123 0.723,-1.333 1.482,-2.689 l 1.38,-2.464 z"
     fill="#0d8d9e"
     id="path2"
     style="display:inline" />
  <path
     d="m 195.148,47.8699 c 0.219,-0.6996 0.46,-1.3791 0.535,-1.5105 0.075,-0.1313 10.219,-0.2385 22.543,-0.2385 h 22.406 l -0.195,0.8745 c -0.473,2.1237 -1.823,4.2454 -3.958,6.2218 -2.554,2.3647 -5.502,4.0056 -10.117,5.6313 l -3.286,1.1578 -0.711,1.7484 c -1.318,3.245 -3.334,5.2662 -6.916,6.9361 -3.022,1.4087 -8.11,2.5294 -11.563,2.5462 -1.24,0.0061 -1.293,0.0519 -1.83,1.5637 -1.14,3.208 -4.913,6.1651 -9.592,7.5167 -4.094,1.1826 -10.757,0.4636 -15.551,-1.6778 -1.565,-0.6993 -1.905,-0.7582 -2.174,-0.3759 -0.236,0.3352 -0.272,0.2461 -0.137,-0.3422 0.1,-0.4372 0.184,-3.1002 0.187,-5.9174 l 0.004,-5.1228 3.371,-1.6959 c 5.746,-2.8913 9.45,-5.6364 12.411,-9.1977 1.754,-2.11 3.864,-5.8551 4.573,-8.1178 z"
     fill="#e08338"
     id="path3"
     style="display:inline" />
  <path
     d="m 133.716,146.452 2.332,-0.159 2.333,-0.159 1.375,2.703 1.375,2.703 -4.078,0.159 c -2.243,0.087 -4.599,0.11 -5.236,0.049 l -1.159,-0.11 1.529,-2.593 z"
     fill="#e08338"
     id="path4"
     style="display:inline" />
  <path
     fill-rule="evenodd"
     clip-rule="evenodd"
     d="M 118.503,3.45628 C 108.29,8.33703 86.6941,18.9651 82.8892,20.9829 c -2.0114,1.0665 -4.0864,2.3678 -4.6111,2.8913 l -0.954,0.9521 -0.0897,17.9616 c -0.0582,11.6626 -0.2007,17.9613 -0.4064,17.9613 -0.5346,0 -4.1719,-1.9258 -6.0726,-3.215 -3.9344,-2.6691 -6.681,-6.1252 -9.046,-11.3834 -0.7547,-1.6781 -1.7418,-3.5159 -2.194,-4.0845 L 58.6937,41.0328 H 29.4426 0.191406 l 0.45793,0.8745 c 0.590854,1.128 2.277874,2.7101 3.692364,3.4625 1.05451,0.5609 2.44356,0.5966 26.4413,0.6789 19.5494,0.0671 25.3962,0.1759 25.6268,0.477 0.1644,0.2147 0.706,1.3668 1.2036,2.5603 2.7447,6.583 8.2071,11.8953 16.4324,15.9814 l 3.0331,1.5067 0.2201,10.2051 c 0.1911,8.8546 0.2913,10.3044 0.7587,10.9522 0.3495,0.4849 5.7222,3.2506 15.3257,7.8891 25.8816,12.5005 31.9766,15.3735 32.6116,15.3735 0.341,0 5.7,-2.447 11.909,-5.437 6.209,-2.99 12.434,-5.9799 13.834,-6.6439 10.576,-5.0175 22.108,-10.8701 22.364,-11.35 0.17,-0.318 0.414,-5.1113 0.543,-10.6516 l 0.234,-10.0734 3.328,-1.6744 c 9.161,-4.6094 14.458,-10.0051 16.912,-17.2251 l 0.564,-1.6587 25.569,-0.159 25.569,-0.159 1.431,-0.7991 c 0.866,-0.4837 1.851,-1.4257 2.494,-2.3851 l 1.063,-1.5859 -28.986,-0.0811 c -20.451,-0.0572 -29.176,0.0207 -29.633,0.2653 -0.356,0.1908 -1.076,1.3003 -1.6,2.4661 -3.401,7.5692 -4.945,9.8219 -8.688,12.677 -2.024,1.5436 -7.698,4.7554 -7.943,4.4966 -0.056,-0.0592 -0.196,-8.1928 -0.311,-18.0748 -0.233,-19.9778 -0.082,-18.7595 -2.501,-20.1769 -1.453,-0.8513 -37.305,-18.30728 -42.545,-20.71458 -1.71,-0.7858 -3.53,-1.403363 -4.136,-1.403363 -0.706,0 -3.128,0.977873 -6.963,2.810223 z m 12.3,4.94244 c 6.095,2.84078 17.709,8.40238 27.602,13.21788 l 7.303,3.555 -9.37,4.6264 c -21.185,10.4595 -29.994,14.7329 -30.368,14.7329 -0.216,0 -8.554,-3.997 -18.527,-8.8826 -9.9739,-4.8852 -18.8628,-9.1957 -19.7538,-9.5793 -0.8911,-0.3831 -1.6199,-0.7997 -1.6199,-0.9257 0,-0.1256 3.3988,-1.8857 7.5526,-3.9111 4.1541,-2.0254 12.8471,-6.2666 19.3191,-9.4254 6.471,-3.15844 12.005,-5.74542 12.297,-5.74891 0.292,-0.00318 2.796,1.05005 5.565,2.34083 z M 169.7,56.7134 c -0.003,15.075 -0.11,27.5651 -0.238,27.7555 -0.129,0.1905 -5.457,2.8557 -11.841,5.9232 -6.384,3.0672 -15.499,7.4684 -20.255,9.7809 -4.755,2.312 -8.801,4.108 -8.99,3.991 -0.242,-0.149 -0.329,-8.189 -0.294,-27.2741 l 0.05,-27.0626 0.721,-0.6688 c 0.397,-0.3676 3.705,-2.0934 7.351,-3.8351 3.646,-1.7414 12.568,-6.122 19.827,-9.7342 7.258,-3.6126 13.304,-6.5045 13.435,-6.4266 0.132,0.0779 0.237,12.4757 0.234,27.5508 z M 91.0289,33.2792 c 22.5341,10.9766 31.9431,15.6926 32.0761,16.0765 0.2,0.58 0.369,54.9603 0.171,54.9613 -0.192,0.002 -18.098,-8.5633 -31.3074,-14.9743 L 82.4122,84.7043 82.3311,56.9856 c -0.0448,-15.2455 0.0404,-27.719 0.1895,-27.719 0.1489,0 3.9776,1.8056 8.5083,4.0126 z M 69.1132,130.382 c -7.2226,2.308 -11.2727,10.511 -8.6949,17.612 1.8145,5 5.7043,8.181 11.1658,9.132 5.7791,1.006 12.2229,-2.516 14.842,-8.114 3.3301,-7.116 -0.3565,-15.782 -7.8742,-18.511 -2.6153,-0.949 -6.68,-1.001 -9.4387,-0.119 z m 64.9228,0.021 c -0.55,0.321 -12.668,24.529 -12.668,25.307 0,0.55 3.834,0.624 4.827,0.092 0.404,-0.216 2.156,-3.414 4.615,-8.427 2.18,-4.443 4.071,-8.078 4.2,-8.078 0.13,0 0.995,1.61 1.923,3.577 2.269,4.814 6.066,12.388 6.457,12.879 0.398,0.5 5.326,0.56 5.326,0.065 0,-0.326 -2.563,-5.793 -8.715,-18.588 -1.682,-3.498 -3.299,-6.539 -3.592,-6.758 -0.632,-0.47 -1.636,-0.5 -2.373,-0.069 z m 71.024,0.228 c -0.832,0.712 -12.837,24.585 -12.632,25.119 0.165,0.432 2.269,0.538 3.962,0.2 1.17,-0.234 1.697,-1.093 6.562,-10.691 1.663,-3.279 3.159,-5.962 3.326,-5.962 0.166,0 1.948,3.327 3.959,7.393 5.1,10.314 4.442,9.461 7.304,9.461 1.331,0 2.463,-0.148 2.58,-0.338 0.256,-0.413 -11.756,-24.784 -12.49,-25.341 -0.737,-0.56 -1.809,-0.494 -2.571,0.159 z m -104.763,0.001 -2.1508,0.108 0.0833,12.626 0.083,12.626 7.4515,0.086 c 4.098,0.047 7.577,-0.041 7.732,-0.196 0.465,-0.465 0.63,-3.554 0.217,-4.052 -0.293,-0.352 -1.461,-0.449 -5.418,-0.449 h -5.045 l -0.083,-10.388 c -0.054,-6.624 -0.2,-10.403 -0.402,-10.429 -0.175,-0.022 -1.286,0.008 -2.468,0.068 z m 59.505,0.129 c -0.074,0.234 -0.082,5.963 -0.016,12.73 l 0.118,12.304 1.686,0.21 c 2.977,0.372 2.993,0.352 3.096,-3.927 0.08,-3.313 0.15,-3.714 0.646,-3.678 0.306,0.022 1.54,0.057 2.742,0.079 l 2.185,0.04 2.47,3.631 c 1.467,2.157 2.743,3.705 3.142,3.812 0.369,0.099 1.724,0.182 3.011,0.185 1.745,0.003 2.3,-0.097 2.186,-0.394 -0.084,-0.22 -1.14,-1.83 -2.347,-3.578 -1.207,-1.749 -2.509,-3.692 -2.895,-4.319 l -0.701,-1.139 0.976,-0.928 c 1.787,-1.697 2.341,-3.16 2.341,-6.174 -0.001,-2.309 -0.124,-2.936 -0.841,-4.293 -1.06,-2.006 -2.221,-3.11 -4.239,-4.032 -1.436,-0.656 -2.163,-0.737 -7.508,-0.841 -4.746,-0.092 -5.944,-0.03 -6.052,0.312 z m -138.606,0.116 c 0,0.373 11.8203,23.133 12.9197,24.876 0.339,0.538 0.752,0.716 1.6606,0.716 0.8532,0 1.3963,-0.211 1.8457,-0.716 0.3501,-0.393 2.3332,-3.863 4.4063,-7.711 2.0734,-3.848 4.9602,-9.18 6.4151,-11.848 1.4549,-2.669 2.6452,-4.994 2.6452,-5.168 0,-0.185 -1.1467,-0.311 -2.7826,-0.305 l -2.7825,0.01 -4.6111,8.733 c -2.5361,4.803 -4.7065,8.734 -4.8229,8.735 -0.1936,0.002 -5.616,-10.256 -8.1088,-15.342 l -1.0523,-2.146 h -2.8662 c -1.5763,0 -2.8662,0.074 -2.8662,0.166 z m 55.8915,4.596 c 2.2521,1.022 3.506,2.194 4.5201,4.223 2.0464,4.095 0.6109,8.85 -3.3966,11.25 -1.3913,0.833 -1.7843,0.912 -4.544,0.912 -2.7177,0 -3.1692,-0.087 -4.4982,-0.868 -3.0303,-1.782 -4.5471,-4.519 -4.3446,-7.84 0.2147,-3.522 1.9399,-6.048 5.1533,-7.544 2.0833,-0.97 5.1406,-1.027 7.11,-0.133 z m 94.5355,0.49 c 2.175,1.124 2.535,4.583 0.652,6.265 -0.956,0.854 -1.112,0.885 -4.483,0.885 h -3.493 v -3.816 -3.816 h 3.196 c 2.234,0 3.476,0.145 4.128,0.482 z"
     fill="#ffffff"
     id="path5"
     style="display:inline" />
</svg>
