<svg width="252" height="158" viewBox="0 0 252 158" fill="none" xmlns="http://www.w3.org/2000/svg">
<path d="M19.7953 56.0357C15.7026 53.6895 12.6618 50.1341 12.1908 47.1449L12.0293 46.1209H34.0643C51.3174 46.1209 56.165 46.2071 56.4039 46.5184C56.5714 46.7372 57.1159 47.8925 57.6136 49.086C60.3579 55.6681 65.821 60.9817 74.0433 65.0661L77.0736 66.5712L77.1652 77.9215C76.8571 77.9215 76.4495 78.0113 76.3487 78.1124C76.2479 78.2132 77.1652 74.4114 77.1652 72.1087C77.1652 69.6178 77.0402 77.9215 76.8571 77.9215C76.6876 77.9215 76.0077 78.2004 75.3465 78.5416C73.3749 79.5583 68.821 80.7314 65.9857 80.9527C59.2576 81.4781 52.6597 78.0637 50.9103 73.1514L50.2873 71.4024L47.2695 71.1591C39.1046 70.5015 32.7153 67.3068 30.5932 62.8207C30.1474 61.8781 29.7823 60.9006 29.7823 60.6484C29.7823 60.2092 28.9415 59.7653 27.2383 59.3051C25.3808 58.803 22.1365 57.378 19.7953 56.0357Z" fill="#0D8D9E"/>
<path d="M207.099 146.293C209.093 146.293 209.456 146.211 209.456 145.76C209.456 145.466 210.112 146.575 210.914 148.224C211.717 149.873 212.492 151.365 212.637 151.54C212.812 151.75 211.022 151.826 207.341 151.764C204.282 151.713 201.826 151.569 201.881 151.446C201.937 151.323 202.604 150.113 203.363 148.757L204.743 146.293H207.099Z" fill="#0D8D9E"/>
<path d="M195.148 47.8699C195.367 47.1703 195.608 46.4908 195.683 46.3594C195.758 46.2281 205.902 46.1209 218.226 46.1209H240.632L240.437 46.9954C239.964 49.1191 238.614 51.2408 236.479 53.2172C233.925 55.5819 230.977 57.2228 226.362 58.8485L223.076 60.0063L222.365 61.7547C221.047 64.9997 219.031 67.0209 215.449 68.6908C212.427 70.0995 207.339 71.2202 203.886 71.237C202.646 71.2431 202.593 71.2889 202.056 72.8007C200.916 76.0087 197.143 78.9658 192.464 80.3174C188.37 81.5 181.707 80.781 176.913 78.6396C175.348 77.9403 175.008 77.8814 174.739 78.2637C174.503 78.5989 174.467 78.5098 174.602 77.9215C174.702 77.4843 174.786 74.8213 174.789 72.0041L174.793 66.8813L178.164 65.1854C183.91 62.2941 187.614 59.549 190.575 55.9877C192.329 53.8777 194.439 50.1326 195.148 47.8699Z" fill="#E08338"/>
<path d="M133.716 146.452L136.048 146.293L138.381 146.134L139.756 148.837L141.131 151.54L137.053 151.699C134.81 151.786 132.454 151.809 131.817 151.748L130.658 151.638L132.187 149.045L133.716 146.452Z" fill="#E08338"/>
<path fill-rule="evenodd" clip-rule="evenodd" d="M118.503 3.45628C108.29 8.33703 86.6941 18.9651 82.8892 20.9829C80.8778 22.0494 78.8028 23.3507 78.2781 23.8742L77.3241 24.8263L77.2344 42.7879C77.1762 54.4505 77.0337 60.7492 76.828 60.7492C76.2934 60.7492 72.6561 58.8234 70.7554 57.5342C66.821 54.8651 64.0744 51.409 61.7094 46.1508C60.9547 44.4727 59.9676 42.6349 59.5154 42.0663L58.6937 41.0328H29.4426H0.191406L0.649336 41.9073C1.24019 43.0353 2.92721 44.6174 4.3417 45.3698C5.39621 45.9307 6.78526 45.9664 30.783 46.0487C50.3324 46.1158 56.1792 46.2246 56.4098 46.5257C56.5742 46.7404 57.1158 47.8925 57.6134 49.086C60.3581 55.669 65.8205 60.9813 74.0458 65.0674L77.0789 66.5741L77.299 76.7792C77.4901 85.6338 77.5903 87.0836 78.0577 87.7314C78.4072 88.2163 83.7799 90.982 93.3834 95.6205C119.265 108.121 125.36 110.994 125.995 110.994C126.336 110.994 131.695 108.547 137.904 105.557C144.113 102.567 150.338 99.5771 151.738 98.9131C162.314 93.8956 173.846 88.043 174.102 87.5631C174.272 87.2451 174.516 82.4518 174.645 76.9115L174.879 66.8381L178.207 65.1637C187.368 60.5543 192.665 55.1586 195.119 47.9386L195.683 46.2799L221.252 46.1209L246.821 45.9619L248.252 45.1628C249.118 44.6791 250.103 43.7371 250.746 42.7777L251.809 41.1918L222.823 41.1107C202.372 41.0535 193.647 41.1314 193.19 41.376C192.834 41.5668 192.114 42.6763 191.59 43.8421C188.189 51.4113 186.645 53.664 182.902 56.5191C180.878 58.0627 175.204 61.2745 174.959 61.0157C174.903 60.9565 174.763 52.8229 174.648 42.9409C174.415 22.9631 174.566 24.1814 172.147 22.764C170.694 21.9127 134.842 4.45672 129.602 2.04942C127.892 1.26362 126.072 0.646057 125.466 0.646057C124.76 0.646057 122.338 1.62393 118.503 3.45628ZM130.803 8.39872C136.898 11.2395 148.512 16.8011 158.405 21.6166L165.708 25.1716L156.338 29.798C135.153 40.2575 126.344 44.5309 125.97 44.5309C125.754 44.5309 117.416 40.5339 107.443 35.6483C97.4691 30.7631 88.5802 26.4526 87.6892 26.069C86.7981 25.6859 86.0693 25.2693 86.0693 25.1433C86.0693 25.0177 89.4681 23.2576 93.6219 21.2322C97.776 19.2068 106.469 14.9656 112.941 11.8068C119.412 8.64836 124.946 6.06138 125.238 6.05789C125.53 6.05471 128.034 7.10794 130.803 8.39872ZM169.7 56.7134C169.697 71.7884 169.59 84.2785 169.462 84.4689C169.333 84.6594 164.005 87.3246 157.621 90.3921C151.237 93.4593 142.122 97.8605 137.366 100.173C132.611 102.485 128.565 104.281 128.376 104.164C128.134 104.015 128.047 95.975 128.082 76.8899L128.132 49.8273L128.853 49.1585C129.25 48.7909 132.558 47.0651 136.204 45.3234C139.85 43.582 148.772 39.2014 156.031 35.5892C163.289 31.9766 169.335 29.0847 169.466 29.1626C169.598 29.2405 169.703 41.6383 169.7 56.7134ZM91.0289 33.2792C113.563 44.2558 122.972 48.9718 123.105 49.3557C123.305 49.9357 123.474 104.316 123.276 104.317C123.084 104.319 105.178 95.7537 91.9686 89.3427L82.4122 84.7043L82.3311 56.9856C82.2863 41.7401 82.3715 29.2666 82.5206 29.2666C82.6695 29.2666 86.4982 31.0722 91.0289 33.2792ZM69.1132 130.382C61.8906 132.69 57.8405 140.893 60.4183 147.994C62.2328 152.994 66.1226 156.175 71.5841 157.126C77.3632 158.132 83.807 154.61 86.4261 149.012C89.7562 141.896 86.0696 133.23 78.5519 130.501C75.9366 129.552 71.8719 129.5 69.1132 130.382ZM134.036 130.403C133.486 130.724 121.368 154.932 121.368 155.71C121.368 156.26 125.202 156.334 126.195 155.802C126.599 155.586 128.351 152.388 130.81 147.375C132.99 142.932 134.881 139.297 135.01 139.297C135.14 139.297 136.005 140.907 136.933 142.874C139.202 147.688 142.999 155.262 143.39 155.753C143.788 156.253 148.716 156.313 148.716 155.818C148.716 155.492 146.153 150.025 140.001 137.23C138.319 133.732 136.702 130.691 136.409 130.472C135.777 130.002 134.773 129.972 134.036 130.403ZM205.06 130.631C204.228 131.343 192.223 155.216 192.428 155.75C192.593 156.182 194.697 156.288 196.39 155.95C197.56 155.716 198.087 154.857 202.952 145.259C204.615 141.98 206.111 139.297 206.278 139.297C206.444 139.297 208.226 142.624 210.237 146.69C215.337 157.004 214.679 156.151 217.541 156.151C218.872 156.151 220.004 156.003 220.121 155.813C220.377 155.4 208.365 131.029 207.631 130.472C206.894 129.912 205.822 129.978 205.06 130.631ZM100.297 130.632L98.1462 130.74L98.2295 143.366L98.3125 155.992L105.764 156.078C109.862 156.125 113.341 156.037 113.496 155.882C113.961 155.417 114.126 152.328 113.713 151.83C113.42 151.478 112.252 151.381 108.295 151.381H103.25L103.167 140.993C103.113 134.369 102.967 130.59 102.765 130.564C102.59 130.542 101.479 130.572 100.297 130.632ZM159.802 130.761C159.728 130.995 159.72 136.724 159.786 143.491L159.904 155.795L161.59 156.005C164.567 156.377 164.583 156.357 164.686 152.078C164.766 148.765 164.836 148.364 165.332 148.4C165.638 148.422 166.872 148.457 168.074 148.479L170.259 148.519L172.729 152.15C174.196 154.307 175.472 155.855 175.871 155.962C176.24 156.061 177.595 156.144 178.882 156.147C180.627 156.15 181.182 156.05 181.068 155.753C180.984 155.533 179.928 153.923 178.721 152.175C177.514 150.426 176.212 148.483 175.826 147.856L175.125 146.717L176.101 145.789C177.888 144.092 178.442 142.629 178.442 139.615C178.441 137.306 178.318 136.679 177.601 135.322C176.541 133.316 175.38 132.212 173.362 131.29C171.926 130.634 171.199 130.553 165.854 130.449C161.108 130.357 159.91 130.419 159.802 130.761ZM21.196 130.877C21.196 131.25 33.0163 154.01 34.1157 155.753C34.4547 156.291 34.8677 156.469 35.7763 156.469C36.6295 156.469 37.1726 156.258 37.622 155.753C37.9721 155.36 39.9552 151.89 42.0283 148.042C44.1017 144.194 46.9885 138.862 48.4434 136.194C49.8983 133.525 51.0886 131.2 51.0886 131.026C51.0886 130.841 49.9419 130.715 48.306 130.721L45.5235 130.731L40.9124 139.464C38.3763 144.267 36.2059 148.198 36.0895 148.199C35.8959 148.201 30.4735 137.943 27.9807 132.857L26.9284 130.711H24.0622C22.4859 130.711 21.196 130.785 21.196 130.877ZM77.0875 135.473C79.3396 136.495 80.5935 137.667 81.6076 139.696C83.654 143.791 82.2185 148.546 78.211 150.946C76.8197 151.779 76.4267 151.858 73.667 151.858C70.9493 151.858 70.4978 151.771 69.1688 150.99C66.1385 149.208 64.6217 146.471 64.8242 143.15C65.0389 139.628 66.7641 137.102 69.9775 135.606C72.0608 134.636 75.1181 134.579 77.0875 135.473ZM171.623 135.963C173.798 137.087 174.158 140.546 172.275 142.228C171.319 143.082 171.163 143.113 167.792 143.113H164.299V139.297V135.481H167.495C169.729 135.481 170.971 135.626 171.623 135.963Z" fill="white"/>
</svg>
