<svg width="252" height="158" viewBox="0 0 252 158" fill="none" xmlns="http://www.w3.org/2000/svg">
<path fill-rule="evenodd" clip-rule="evenodd" d="M77.9295 24.0841L77.3237 24.7996L78.0392 24.1938C78.7115 23.6246 78.8994 23.3686 78.645 23.3686C78.5846 23.3686 78.2628 23.6904 77.9295 24.0841ZM77.1898 25.462C77.2051 25.8325 77.2804 25.9079 77.3819 25.6544C77.4738 25.4248 77.4623 25.1504 77.3568 25.0448C77.2512 24.9392 77.1761 25.1268 77.1898 25.462ZM174.525 25.9126C174.525 26.3499 174.597 26.5289 174.685 26.3101C174.773 26.0917 174.773 25.7339 174.685 25.5151C174.597 25.2967 174.525 25.4754 174.525 25.9126ZM174.612 34.8168C174.612 39.1019 174.657 40.8551 174.712 38.7124C174.767 36.5697 174.767 33.064 174.712 30.9212C174.657 28.7785 174.612 30.5317 174.612 34.8168ZM169.538 55.1692C169.538 69.2489 169.577 75.009 169.625 67.9689C169.673 60.9292 169.673 49.4095 169.625 42.3695C169.577 35.3298 169.538 41.0895 169.538 55.1692ZM14.4138 41.0974C22.315 41.1448 35.3374 41.1448 43.3524 41.0974C51.3677 41.05 44.903 41.0112 28.9868 41.0112C13.0706 41.0112 6.51298 41.05 14.4138 41.0974ZM199.518 41.0968C202.36 41.1496 207.011 41.1496 209.853 41.0968C212.695 41.044 210.369 41.0011 204.685 41.0011C199.001 41.0011 196.675 41.044 199.518 41.0968ZM218.28 41.0834C218.673 41.1591 219.318 41.1591 219.711 41.0834C220.104 41.0074 219.782 40.9454 218.995 40.9454C218.208 40.9454 217.886 41.0074 218.28 41.0834ZM229.75 41.0971C233.828 41.1477 240.411 41.1474 244.378 41.0971C248.345 41.0465 245.008 41.0055 236.963 41.0055C228.917 41.0055 225.671 41.0469 229.75 41.0971ZM59.0383 41.6151C59.0383 41.681 59.2889 41.9316 59.5949 42.1716C60.0992 42.5669 60.1103 42.5558 59.7151 42.0514C59.2994 41.5216 59.0383 41.3534 59.0383 41.6151ZM1.63826 43.721C1.95468 44.0708 2.2854 44.357 2.37286 44.357C2.46031 44.357 2.27268 44.0708 1.95627 43.721C1.63985 43.3712 1.30913 43.085 1.22168 43.085C1.13422 43.085 1.32185 43.3712 1.63826 43.721ZM12.1903 47.289C12.6613 50.2783 15.7021 53.8336 19.7948 56.1798C22.136 57.5221 25.3803 58.9471 27.2377 59.4492C28.941 59.9094 29.7818 60.3533 29.7818 60.7925C29.7818 61.0447 30.1469 62.0222 30.5927 62.9648C32.7148 67.4509 39.1041 70.6456 47.2689 71.3032L50.2868 71.5465L50.9098 73.2955C52.6591 78.2078 59.2571 81.6222 65.9852 81.0969C68.8205 80.8755 73.3744 79.7024 75.346 78.6857C76.0072 78.3445 76.687 78.0656 76.8565 78.0656C77.0397 78.0656 77.1647 79.7619 77.1647 82.2528C77.1647 84.5555 77.2474 86.3573 77.3482 86.2565C77.449 86.1554 77.4283 81.7176 77.3024 76.3942L77.0731 66.7154L74.0428 65.2102C65.8205 61.1258 60.3574 55.8122 57.613 49.2301C57.1154 48.0366 56.5709 46.8813 56.4033 46.6625C56.1645 46.3512 51.3168 46.265 34.0637 46.265H12.0288L12.1903 47.289ZM128.175 55.1692C128.175 58.0551 128.223 59.2359 128.282 57.7927C128.341 56.3496 128.341 53.9888 128.282 52.5456C128.223 51.1025 128.175 52.2833 128.175 55.1692ZM185.113 54.6127L183.856 55.9642L185.207 54.7071C186.464 53.5381 186.705 53.2612 186.464 53.2612C186.412 53.2612 185.804 53.8695 185.113 54.6127ZM66.9885 54.6922C67.3994 55.1294 67.807 55.4872 67.8945 55.4872C67.9819 55.4872 67.7174 55.1294 67.3065 54.6922C66.8956 54.2549 66.488 53.8972 66.4005 53.8972C66.3131 53.8972 66.5776 54.2549 66.9885 54.6922ZM128.132 64.0734C128.132 64.8604 128.194 65.1826 128.27 64.7889C128.346 64.3952 128.346 63.7515 128.27 63.3579C128.194 62.9642 128.132 63.2863 128.132 64.0734ZM128.194 86.3338C128.194 96.2158 128.235 100.259 128.284 95.3175C128.333 90.3766 128.333 82.2913 128.284 77.3501C128.235 72.4093 128.194 76.4517 128.194 86.3338ZM174.599 82.8357C174.599 85.1969 174.649 86.1627 174.71 84.9823C174.772 83.8018 174.772 81.8696 174.71 80.6892C174.649 79.5087 174.599 80.4745 174.599 82.8357ZM169.477 82.9947C169.48 83.8692 169.542 84.1892 169.615 83.7058C169.688 83.2224 169.686 82.5069 169.61 82.1158C169.535 81.7246 169.475 82.1202 169.477 82.9947ZM123.362 97.146C123.362 97.9331 123.424 98.2549 123.5 97.8615C123.576 97.4681 123.576 96.8239 123.5 96.4305C123.424 96.0371 123.362 96.3589 123.362 97.146ZM123.371 102.87C123.371 103.832 123.43 104.226 123.503 103.745C123.576 103.263 123.576 102.477 123.503 101.996C123.43 101.514 123.371 101.908 123.371 102.87ZM73.1101 129.81C73.5909 129.883 74.3783 129.883 74.8591 129.81C75.34 129.737 74.9466 129.678 73.9846 129.678C73.0227 129.678 72.6293 129.737 73.1101 129.81ZM21.085 130.775C21.0032 130.906 21.8177 130.974 22.8947 130.925C26.4017 130.767 26.8164 130.639 23.9969 130.587C22.4769 130.56 21.1664 130.644 21.085 130.775ZM49.8133 130.76C50.4239 130.841 51.043 131.074 51.189 131.278C51.3703 131.531 51.4138 131.498 51.3264 131.173C51.2424 130.861 50.7651 130.682 49.9507 130.655C48.7556 130.616 48.7499 130.621 49.8133 130.76ZM99.3456 130.767C99.9142 130.837 100.844 130.837 101.413 130.767C101.981 130.696 101.516 130.638 100.379 130.638C99.2423 130.638 98.777 130.696 99.3456 130.767ZM64.2552 133.16L63.6494 133.876L64.3649 133.27C65.0372 132.701 65.2252 132.445 64.9708 132.445C64.9103 132.445 64.5885 132.767 64.2552 133.16ZM159.671 145.006C159.672 151.128 159.714 153.587 159.766 150.471C159.819 147.355 159.818 142.347 159.766 139.341C159.714 136.335 159.671 138.884 159.671 145.006ZM164.421 139.441C164.421 141.627 164.472 142.522 164.534 141.428C164.596 140.335 164.596 138.547 164.534 137.453C164.472 136.36 164.421 137.255 164.421 139.441ZM171.93 136.381C171.93 136.447 172.181 136.697 172.487 136.937C172.991 137.333 173.002 137.322 172.607 136.817C172.192 136.287 171.93 136.119 171.93 136.381ZM66.9478 137.771C66.5525 138.276 66.5636 138.287 67.068 137.891C67.3739 137.651 67.6245 137.401 67.6245 137.335C67.6245 137.073 67.3634 137.241 66.9478 137.771ZM79.7087 137.335C79.7087 137.401 79.9593 137.651 80.2652 137.891C80.7696 138.287 80.7807 138.276 80.3855 137.771C79.9698 137.241 79.7087 137.073 79.7087 137.335ZM172.224 142.223L171.453 143.098L172.328 142.327C173.145 141.606 173.348 141.349 173.099 141.349C173.042 141.349 172.649 141.742 172.224 142.223ZM59.4473 143.734C59.4499 144.608 59.5115 144.928 59.5847 144.445C59.6575 143.962 59.6556 143.246 59.5802 142.855C59.5049 142.464 59.4451 142.859 59.4473 143.734ZM176.04 146.039L175.27 146.914L176.144 146.143C176.961 145.422 177.165 145.165 176.915 145.165C176.858 145.165 176.465 145.558 176.04 146.039ZM209.455 145.904C209.455 146.355 209.092 146.437 207.099 146.437H204.743L203.362 148.901C202.603 150.257 201.937 151.467 201.881 151.59C201.825 151.714 204.282 151.857 207.34 151.908C211.021 151.97 212.811 151.895 212.637 151.684C212.492 151.509 211.716 150.017 210.914 148.368C210.112 146.719 209.455 145.61 209.455 145.904ZM87.366 146.304C87.3813 146.675 87.4566 146.75 87.5581 146.497C87.65 146.267 87.6385 145.993 87.533 145.887C87.4274 145.782 87.3523 145.969 87.366 146.304ZM79.6846 149.855L78.9137 150.73L79.7882 149.959C80.2691 149.535 80.6628 149.142 80.6628 149.085C80.6628 148.835 80.4052 149.038 79.6846 149.855ZM83.3356 153.513L82.7298 154.228L83.4453 153.622C84.1176 153.053 84.3055 152.797 84.0511 152.797C83.9907 152.797 83.6689 153.119 83.3356 153.513ZM113.76 154.572C113.776 154.943 113.851 155.018 113.953 154.765C114.044 154.535 114.033 154.261 113.927 154.155C113.822 154.05 113.747 154.237 113.76 154.572ZM113.597 155.884C113.424 156.337 113.461 156.374 113.775 156.062C113.992 155.846 114.09 155.589 113.992 155.492C113.894 155.394 113.716 155.57 113.597 155.884ZM37.3732 156.216C36.978 156.72 36.9891 156.731 37.4934 156.336C38.0232 155.92 38.1915 155.659 37.9297 155.659C37.8639 155.659 37.6133 155.91 37.3732 156.216ZM160.403 156.188C160.622 156.276 160.979 156.276 161.198 156.188C161.417 156.1 161.238 156.027 160.8 156.027C160.363 156.027 160.184 156.1 160.403 156.188ZM196.357 156.194C196.587 156.286 196.861 156.275 196.967 156.169C197.072 156.064 196.885 155.989 196.55 156.002C196.179 156.017 196.104 156.093 196.357 156.194ZM35.5914 156.833C35.9009 156.914 36.3302 156.909 36.5455 156.822C36.7608 156.735 36.5076 156.669 35.9829 156.675C35.4582 156.681 35.282 156.753 35.5914 156.833Z" fill="#0D8D9E"/>
<path fill-rule="evenodd" clip-rule="evenodd" d="M215.581 41.0873C216.065 41.1601 216.78 41.1582 217.171 41.0828C217.563 41.0075 217.167 40.9477 216.293 40.9499C215.418 40.9525 215.098 41.0141 215.581 41.0873ZM220.828 41.0838C221.224 41.1598 221.796 41.1569 222.1 41.0774C222.404 40.9979 222.08 40.9356 221.381 40.9391C220.681 40.9426 220.432 41.0078 220.828 41.0838ZM192.242 42.0515C191.847 42.5558 191.858 42.567 192.363 42.1717C192.892 41.7561 193.061 41.495 192.799 41.495C192.733 41.495 192.482 41.7456 192.242 42.0515ZM249.818 44.2775L249.047 45.152L249.922 44.3812C250.403 43.957 250.796 43.5636 250.796 43.5067C250.796 43.257 250.539 43.4603 249.818 44.2775ZM195.683 46.5036C195.608 46.6349 195.367 47.3145 195.148 48.0141C194.439 50.2767 192.329 54.0219 190.575 56.1318C187.614 59.6932 183.91 62.4382 178.164 65.3295L174.793 67.0255L174.788 72.1482C174.786 74.9654 174.702 77.6284 174.602 78.0657C174.467 78.654 174.502 78.743 174.739 78.4078C175.008 78.0256 175.347 78.0844 176.913 78.7837C181.707 80.9252 188.37 81.6442 192.464 80.4615C197.143 79.11 200.916 76.1529 202.055 72.9448C202.593 71.433 202.646 71.3872 203.886 71.3812C207.339 71.3643 212.427 70.2437 215.449 68.8349C219.031 67.1651 221.046 65.1438 222.365 61.8989L223.076 60.1505L226.362 58.9926C230.977 57.367 233.925 55.7261 236.479 53.3614C238.613 51.385 239.963 49.2632 240.437 47.1396L240.632 46.2651H218.225C205.902 46.2651 195.758 46.3722 195.683 46.5036ZM76.9334 51.3532C76.9334 52.1402 76.9954 52.4624 77.0714 52.0687C77.1471 51.675 77.1471 51.0313 77.0714 50.6376C76.9954 50.244 76.9334 50.5661 76.9334 51.3532ZM76.9334 56.4413C76.9334 57.2283 76.9954 57.5505 77.0714 57.1568C77.1471 56.7631 77.1471 56.1194 77.0714 55.7257C76.9954 55.3321 76.9334 55.6542 76.9334 56.4413ZM169.412 81.1131C169.427 81.4836 169.502 81.559 169.604 81.3055C169.696 81.0759 169.684 80.8015 169.579 80.6959C169.473 80.5903 169.398 80.7779 169.412 81.1131ZM77.19 86.8372C77.2053 87.2077 77.2807 87.2831 77.3821 87.0296C77.474 86.8 77.4626 86.5256 77.357 86.42C77.2514 86.3144 77.1764 86.5021 77.19 86.8372ZM173.798 88.1624C173.403 88.6667 173.414 88.6778 173.918 88.2826C174.448 87.8669 174.616 87.6059 174.355 87.6059C174.289 87.6059 174.038 87.8564 173.798 88.1624ZM71.6993 129.8C71.9286 129.892 72.2031 129.88 72.3086 129.775C72.4142 129.669 72.2266 129.594 71.8914 129.608C71.5209 129.623 71.4456 129.698 71.6993 129.8ZM133.411 130.775C133.016 131.28 133.027 131.291 133.531 130.895C134.061 130.48 134.23 130.219 133.968 130.219C133.902 130.219 133.651 130.469 133.411 130.775ZM136.314 130.339C136.314 130.405 136.565 130.655 136.871 130.895C137.375 131.291 137.386 131.28 136.991 130.775C136.575 130.245 136.314 130.077 136.314 130.339ZM204.496 130.934L203.89 131.65L204.606 131.044C205.278 130.475 205.466 130.219 205.212 130.219C205.151 130.219 204.829 130.541 204.496 130.934ZM46.3978 130.764C46.8786 130.837 47.666 130.837 48.1469 130.764C48.6277 130.692 48.2343 130.632 47.2723 130.632C46.3104 130.632 45.917 130.692 46.3978 130.764ZM97.9803 130.935C97.8964 131.154 97.8652 136.771 97.911 143.417L97.9949 155.5L98.1536 143.018C98.2408 136.153 98.2719 130.536 98.2229 130.537C98.1737 130.537 98.0646 130.716 97.9803 130.935ZM103.394 141.031L103.4 151.366L104.195 151.418C104.887 151.463 104.898 151.45 104.279 151.317L103.568 151.164L103.477 140.93L103.387 130.696L103.394 141.031ZM175.111 132.247C175.111 132.313 175.361 132.563 175.667 132.803C176.172 133.199 176.183 133.188 175.787 132.683C175.372 132.153 175.111 131.985 175.111 132.247ZM67.902 137.135C67.5067 137.64 67.5179 137.651 68.0222 137.255C68.552 136.84 68.7203 136.579 68.4585 136.579C68.3927 136.579 68.1421 136.829 67.902 137.135ZM178.695 139.759C178.695 140.546 178.757 140.868 178.833 140.474C178.909 140.081 178.909 139.437 178.833 139.043C178.757 138.65 178.695 138.972 178.695 139.759ZM173.253 139.441C173.253 139.878 173.325 140.057 173.413 139.838C173.502 139.62 173.502 139.262 173.413 139.043C173.325 138.825 173.253 139.004 173.253 139.441ZM59.4068 141.667C59.4068 142.104 59.479 142.283 59.5671 142.064C59.6555 141.846 59.6555 141.488 59.5671 141.269C59.479 141.051 59.4068 141.23 59.4068 141.667ZM87.7609 143.575C87.7609 144.712 87.8187 145.177 87.889 144.608C87.9596 144.04 87.9596 143.11 87.889 142.541C87.8187 141.973 87.7609 142.438 87.7609 143.575ZM64.8247 143.098C64.831 143.623 64.9023 143.799 64.983 143.489C65.0638 143.18 65.0584 142.751 64.9713 142.535C64.8842 142.32 64.8183 142.573 64.8247 143.098ZM82.3395 143.575C82.3395 144.362 82.4015 144.684 82.4775 144.29C82.5532 143.897 82.5532 143.253 82.4775 142.859C82.4015 142.466 82.3395 142.788 82.3395 143.575ZM33.1414 143.032C33.261 143.346 33.4388 143.522 33.5367 143.424C33.6347 143.327 33.537 143.07 33.3195 142.854C33.0053 142.542 32.9691 142.579 33.1414 143.032ZM169.963 143.156C170.192 143.248 170.467 143.237 170.572 143.131C170.678 143.025 170.49 142.95 170.155 142.964C169.785 142.979 169.709 143.055 169.963 143.156ZM64.7878 144.714C64.8031 145.085 64.8784 145.16 64.9799 144.907C65.0718 144.677 65.0603 144.403 64.9547 144.297C64.8492 144.192 64.7741 144.379 64.7878 144.714ZM59.3817 145.668C59.397 146.039 59.4723 146.114 59.5738 145.861C59.6657 145.631 59.6542 145.357 59.5486 145.251C59.4431 145.146 59.368 145.333 59.3817 145.668ZM136.048 146.437L133.715 146.596L132.187 149.189L130.658 151.783L131.816 151.892C132.454 151.953 134.81 151.931 137.053 151.843L141.131 151.684L139.756 148.981L138.381 146.278L136.048 146.437ZM84.4383 152.4C84.0431 152.904 84.0542 152.915 84.5585 152.52C85.0883 152.104 85.2566 151.843 84.9949 151.843C84.929 151.843 84.6784 152.094 84.4383 152.4ZM63.3316 153.433C63.6481 153.783 63.9788 154.069 64.0662 154.069C64.1537 154.069 63.9661 153.783 63.6496 153.433C63.3332 153.083 63.0025 152.797 62.9151 152.797C62.8276 152.797 63.0152 153.083 63.3316 153.433ZM197.33 155.898C196.935 156.402 196.946 156.413 197.451 156.018C197.98 155.602 198.149 155.341 197.887 155.341C197.821 155.341 197.571 155.592 197.33 155.898Z" fill="#E08338"/>
<path fill-rule="evenodd" clip-rule="evenodd" d="M118.503 3.60038C108.29 8.48114 86.6941 19.1092 82.8892 21.127C80.8778 22.1936 78.8028 23.4948 78.2781 24.0183L77.3241 24.9704L77.2344 42.932C77.1762 54.5946 77.0337 60.8933 76.828 60.8933C76.2934 60.8933 72.6561 58.9675 70.7554 57.6783C66.821 55.0092 64.0744 51.5531 61.7094 46.2949C60.9547 44.6168 59.9676 42.779 59.5154 42.2104L58.6937 41.1769H29.4426H0.191406L0.649336 42.0514C1.24019 43.1794 2.92721 44.7615 4.3417 45.5139C5.39621 46.0749 6.78526 46.1105 30.783 46.1928C50.3324 46.2599 56.1792 46.3687 56.4098 46.6698C56.5742 46.8845 57.1158 48.0366 57.6134 49.2301C60.3581 55.8132 65.8205 61.1254 74.0458 65.2115L77.0789 66.7182L77.299 76.9234C77.4901 85.7779 77.5903 87.2277 78.0577 87.8755C78.4072 88.3604 83.7799 91.1261 93.3834 95.7646C119.265 108.265 125.36 111.138 125.995 111.138C126.336 111.138 131.695 108.691 137.904 105.701C144.113 102.711 150.338 99.7212 151.738 99.0572C162.314 94.0397 173.846 88.1871 174.102 87.7072C174.272 87.3892 174.516 82.5959 174.645 77.0556L174.879 66.9822L178.207 65.3079C187.368 60.6984 192.665 55.3028 195.119 48.0827L195.683 46.424L221.252 46.265L246.821 46.106L248.252 45.3069C249.118 44.8232 250.103 43.8812 250.746 42.9218L251.809 41.3359L222.823 41.2548C202.372 41.1976 193.647 41.2755 193.19 41.5201C192.834 41.7109 192.114 42.8204 191.59 43.9862C188.189 51.5554 186.645 53.8081 182.902 56.6632C180.878 58.2068 175.204 61.4186 174.959 61.1598C174.903 61.1006 174.763 52.967 174.648 43.085C174.415 23.1072 174.566 24.3255 172.147 22.9081C170.694 22.0568 134.842 4.60083 129.602 2.19352C127.892 1.40773 126.072 0.790161 125.466 0.790161C124.76 0.790161 122.338 1.76803 118.503 3.60038ZM130.803 8.54283C136.898 11.3836 148.512 16.9452 158.405 21.7607L165.708 25.3157L156.338 29.9421C135.153 40.4016 126.344 44.675 125.97 44.675C125.754 44.675 117.416 40.678 107.443 35.7924C97.4691 30.9072 88.5802 26.5967 87.6892 26.2132C86.7981 25.83 86.0693 25.4134 86.0693 25.2874C86.0693 25.1618 89.4681 23.4017 93.6219 21.3763C97.776 19.3509 106.469 15.1097 112.941 11.9509C119.412 8.79247 124.946 6.20549 125.238 6.20199C125.53 6.19881 128.034 7.25204 130.803 8.54283ZM169.7 56.8575C169.697 71.9326 169.59 84.4226 169.462 84.613C169.333 84.8035 164.005 87.4687 157.621 90.5362C151.237 93.6034 142.122 98.0046 137.366 100.317C132.611 102.629 128.565 104.425 128.376 104.308C128.134 104.159 128.047 96.1191 128.082 77.034L128.132 49.9714L128.853 49.3026C129.25 48.935 132.558 47.2092 136.204 45.4675C139.85 43.7261 148.772 39.3455 156.031 35.7333C163.289 32.1207 169.335 29.2288 169.466 29.3067C169.598 29.3846 169.703 41.7824 169.7 56.8575ZM91.0289 33.4233C113.563 44.3999 122.972 49.1159 123.105 49.4998C123.305 50.0798 123.474 104.46 123.276 104.461C123.084 104.463 105.178 95.8978 91.9686 89.4868L82.4122 84.8484L82.3311 57.1297C82.2863 41.8842 82.3715 29.4107 82.5206 29.4107C82.6695 29.4107 86.4982 31.2163 91.0289 33.4233ZM69.1132 130.526C61.8906 132.834 57.8405 141.037 60.4183 148.138C62.2328 153.138 66.1226 156.319 71.5841 157.27C77.3632 158.276 83.807 154.754 86.4261 149.157C89.7562 142.04 86.0696 133.374 78.5519 130.645C75.9366 129.696 71.8719 129.645 69.1132 130.526ZM134.036 130.547C133.486 130.868 121.368 155.076 121.368 155.854C121.368 156.404 125.202 156.478 126.195 155.947C126.599 155.73 128.351 152.532 130.81 147.519C132.99 143.076 134.881 139.441 135.01 139.441C135.14 139.441 136.005 141.051 136.933 143.018C139.202 147.832 142.999 155.406 143.39 155.898C143.788 156.397 148.716 156.457 148.716 155.962C148.716 155.636 146.153 150.169 140.001 137.374C138.319 133.876 136.702 130.835 136.409 130.616C135.777 130.146 134.773 130.117 134.036 130.547ZM205.06 130.775C204.228 131.487 192.223 155.36 192.428 155.894C192.593 156.327 194.697 156.432 196.39 156.094C197.56 155.86 198.087 155.001 202.952 145.403C204.615 142.124 206.111 139.441 206.278 139.441C206.444 139.441 208.226 142.768 210.237 146.834C215.337 157.148 214.679 156.295 217.541 156.295C218.872 156.295 220.004 156.147 220.121 155.957C220.377 155.544 208.365 131.173 207.631 130.616C206.894 130.056 205.822 130.123 205.06 130.775ZM100.297 130.776L98.1462 130.884L98.2295 143.51L98.3125 156.136L105.764 156.222C109.862 156.269 113.341 156.181 113.496 156.026C113.961 155.561 114.126 152.472 113.713 151.974C113.42 151.622 112.252 151.525 108.295 151.525H103.25L103.167 141.137C103.113 134.513 102.967 130.734 102.765 130.708C102.59 130.686 101.479 130.716 100.297 130.776ZM159.802 130.905C159.728 131.14 159.72 136.868 159.786 143.635L159.904 155.939L161.59 156.149C164.567 156.521 164.583 156.501 164.686 152.222C164.766 148.909 164.836 148.508 165.332 148.544C165.638 148.566 166.872 148.601 168.074 148.623L170.259 148.663L172.729 152.295C174.196 154.451 175.472 155.999 175.871 156.106C176.24 156.205 177.595 156.288 178.882 156.291C180.627 156.294 181.182 156.194 181.068 155.897C180.984 155.677 179.928 154.067 178.721 152.319C177.514 150.57 176.212 148.627 175.826 148.001L175.125 146.861L176.101 145.934C177.888 144.236 178.442 142.773 178.442 139.759C178.441 137.45 178.318 136.824 177.601 135.466C176.541 133.46 175.38 132.356 173.362 131.434C171.926 130.778 171.199 130.697 165.854 130.593C161.108 130.501 159.91 130.563 159.802 130.905ZM21.196 131.021C21.196 131.394 33.0163 154.154 34.1157 155.898C34.4547 156.435 34.8677 156.613 35.7763 156.613C36.6295 156.613 37.1726 156.403 37.622 155.898C37.9721 155.504 39.9552 152.034 42.0283 148.186C44.1017 144.338 46.9885 139.006 48.4434 136.338C49.8983 133.669 51.0886 131.344 51.0886 131.17C51.0886 130.985 49.9419 130.859 48.306 130.865L45.5235 130.875L40.9124 139.608C38.3763 144.411 36.2059 148.342 36.0895 148.343C35.8959 148.345 30.4735 138.087 27.9807 133.001L26.9284 130.855H24.0622C22.4859 130.855 21.196 130.929 21.196 131.021ZM77.0875 135.617C79.3396 136.639 80.5935 137.811 81.6076 139.84C83.654 143.935 82.2185 148.69 78.211 151.09C76.8197 151.923 76.4267 152.002 73.667 152.002C70.9493 152.002 70.4978 151.915 69.1688 151.134C66.1385 149.352 64.6217 146.615 64.8242 143.294C65.0389 139.772 66.7641 137.247 69.9775 135.75C72.0608 134.78 75.1181 134.723 77.0875 135.617ZM171.623 136.107C173.798 137.232 174.158 140.69 172.275 142.372C171.319 143.226 171.163 143.257 167.792 143.257H164.299V139.441V135.625H167.495C169.729 135.625 170.971 135.77 171.623 136.107Z" fill="black"/>
</svg>
